<svg xmlns="http://www.w3.org/2000/svg" viewBox="0 0 1024 1024" width="1024" height="1024">
  <!-- <style>
  text {
    font-family: "Avenir Next Condensed";
    font-weight: 500
  }
  </style> -->
  <rect width="1024" height="1024" fill="#D9D9D9" />
  <!-- <line x1="48" y1="96" x2="976" y2="96" stroke="#A6A6A6" stroke-width="2" />
  <line x1="48" y1="132" x2="976" y2="132" stroke="#A6A6A6" stroke-width="2" />
  <line x1="48" y1="892" x2="976" y2="892" stroke="#A6A6A6" stroke-width="2" />
  <line x1="48" y1="928" x2="976" y2="928" stroke="#A6A6A6" stroke-width="2" /> -->
  <circle cx="512" cy="512" r="398" fill="none" stroke="#111111" stroke-width="46" stroke-dasharray="21.99 6.04" />
  <circle cx="512" cy="512" r="382" fill="#111111" />
  <line x1="512.0" y1="142.0" x2="512.0" y2="174.0" stroke="#D9D9D9" stroke-width="3" stroke-linecap="round" />
  <text x="512.0" y="207.0" transform="rotate(0.0 512.0 207.0)" fill="#D9D9D9" font-family="Avenir Next Condensed, Arial Narrow, sans-serif" font-size="38" font-weight="500" text-anchor="middle" dominant-baseline="middle">1.9</text>
  <line x1="576.2" y1="147.6" x2="573.1" y2="165.3" stroke="#D9D9D9" stroke-width="2" stroke-linecap="round" />
  <line x1="638.5" y1="164.3" x2="632.4" y2="181.2" stroke="#D9D9D9" stroke-width="2" stroke-linecap="round" />
  <line x1="697.0" y1="191.6" x2="688.0" y2="207.2" stroke="#D9D9D9" stroke-width="2" stroke-linecap="round" />
  <line x1="749.8" y1="228.6" x2="729.3" y2="253.1" stroke="#D9D9D9" stroke-width="3" stroke-linecap="round" />
  <text x="708.1" y="278.4" transform="rotate(40.0 708.1 278.4)" fill="#D9D9D9" font-family="Avenir Next Condensed, Arial Narrow, sans-serif" font-size="38" font-weight="500" text-anchor="middle" dominant-baseline="middle">2.8</text>
  <line x1="795.4" y1="274.2" x2="781.6" y2="285.7" stroke="#D9D9D9" stroke-width="2" stroke-linecap="round" />
  <line x1="832.4" y1="327.0" x2="816.8" y2="336.0" stroke="#D9D9D9" stroke-width="2" stroke-linecap="round" />
  <line x1="859.7" y1="385.5" x2="842.8" y2="391.6" stroke="#D9D9D9" stroke-width="2" stroke-linecap="round" />
  <line x1="876.4" y1="447.8" x2="844.9" y2="453.3" stroke="#D9D9D9" stroke-width="3" stroke-linecap="round" />
  <text x="812.4" y="459.0" transform="rotate(80.0 812.4 459.0)" fill="#D9D9D9" font-family="Avenir Next Condensed, Arial Narrow, sans-serif" font-size="38" font-weight="500" text-anchor="middle" dominant-baseline="middle">4</text>
  <line x1="882.0" y1="512.0" x2="864.0" y2="512.0" stroke="#D9D9D9" stroke-width="2" stroke-linecap="round" />
  <line x1="876.4" y1="576.2" x2="858.7" y2="573.1" stroke="#D9D9D9" stroke-width="2" stroke-linecap="round" />
  <line x1="859.7" y1="638.5" x2="842.8" y2="632.4" stroke="#D9D9D9" stroke-width="2" stroke-linecap="round" />
  <line x1="832.4" y1="697.0" x2="804.7" y2="681.0" stroke="#D9D9D9" stroke-width="3" stroke-linecap="round" />
  <text x="776.1" y="664.5" transform="rotate(120.0 776.1 664.5)" fill="#D9D9D9" font-family="Avenir Next Condensed, Arial Narrow, sans-serif" font-size="38" font-weight="500" text-anchor="middle" dominant-baseline="middle">5.6</text>
  <line x1="795.4" y1="749.8" x2="781.6" y2="738.3" stroke="#D9D9D9" stroke-width="2" stroke-linecap="round" />
  <line x1="749.8" y1="795.4" x2="738.3" y2="781.6" stroke="#D9D9D9" stroke-width="2" stroke-linecap="round" />
  <line x1="697.0" y1="832.4" x2="688.0" y2="816.8" stroke="#D9D9D9" stroke-width="2" stroke-linecap="round" />
  <line x1="638.5" y1="859.7" x2="627.6" y2="829.6" stroke="#D9D9D9" stroke-width="3" stroke-linecap="round" />
  <text x="616.3" y="798.6" transform="rotate(160.0 616.3 798.6)" fill="#D9D9D9" font-family="Avenir Next Condensed, Arial Narrow, sans-serif" font-size="38" font-weight="500" text-anchor="middle" dominant-baseline="middle">8</text>
  <line x1="576.2" y1="876.4" x2="573.1" y2="858.7" stroke="#D9D9D9" stroke-width="2" stroke-linecap="round" />
  <line x1="512.0" y1="882.0" x2="512.0" y2="864.0" stroke="#D9D9D9" stroke-width="2" stroke-linecap="round" />
  <line x1="447.8" y1="876.4" x2="450.9" y2="858.7" stroke="#D9D9D9" stroke-width="2" stroke-linecap="round" />
  <line x1="385.5" y1="859.7" x2="396.4" y2="829.6" stroke="#D9D9D9" stroke-width="3" stroke-linecap="round" />
  <text x="407.7" y="798.6" transform="rotate(200.0 407.7 798.6)" fill="#D9D9D9" font-family="Avenir Next Condensed, Arial Narrow, sans-serif" font-size="38" font-weight="500" text-anchor="middle" dominant-baseline="middle">11</text>
  <line x1="327.0" y1="832.4" x2="336.0" y2="816.8" stroke="#D9D9D9" stroke-width="2" stroke-linecap="round" />
  <line x1="274.2" y1="795.4" x2="285.7" y2="781.6" stroke="#D9D9D9" stroke-width="2" stroke-linecap="round" />
  <line x1="228.6" y1="749.8" x2="242.4" y2="738.3" stroke="#D9D9D9" stroke-width="2" stroke-linecap="round" />
  <line x1="191.6" y1="697.0" x2="219.3" y2="681.0" stroke="#D9D9D9" stroke-width="3" stroke-linecap="round" />
  <text x="247.9" y="664.5" transform="rotate(240.0 247.9 664.5)" fill="#D9D9D9" font-family="Avenir Next Condensed, Arial Narrow, sans-serif" font-size="38" font-weight="500" text-anchor="middle" dominant-baseline="middle">16</text>
  <line x1="164.3" y1="638.5" x2="181.2" y2="632.4" stroke="#D9D9D9" stroke-width="2" stroke-linecap="round" />
  <line x1="147.6" y1="576.2" x2="165.3" y2="573.1" stroke="#D9D9D9" stroke-width="2" stroke-linecap="round" />
  <line x1="142.0" y1="512.0" x2="160.0" y2="512.0" stroke="#D9D9D9" stroke-width="2" stroke-linecap="round" />
  <line x1="147.6" y1="447.8" x2="179.1" y2="453.3" stroke="#D9D9D9" stroke-width="3" stroke-linecap="round" />
  <text x="211.6" y="459.0" transform="rotate(280.0 211.6 459.0)" fill="#D9D9D9" font-family="Avenir Next Condensed, Arial Narrow, sans-serif" font-size="38" font-weight="500" text-anchor="middle" dominant-baseline="middle">22</text>
  <line x1="164.3" y1="385.5" x2="181.2" y2="391.6" stroke="#D9D9D9" stroke-width="2" stroke-linecap="round" />
  <line x1="191.6" y1="327.0" x2="207.2" y2="336.0" stroke="#D9D9D9" stroke-width="2" stroke-linecap="round" />
  <line x1="228.6" y1="274.2" x2="242.4" y2="285.7" stroke="#D9D9D9" stroke-width="2" stroke-linecap="round" />
  <line x1="274.2" y1="228.6" x2="294.7" y2="253.1" stroke="#D9D9D9" stroke-width="3" stroke-linecap="round" />
  <text x="315.9" y="278.4" transform="rotate(320.0 315.9 278.4)" fill="#D9D9D9" font-family="Avenir Next, Arial, sans-serif" font-size="38" font-weight="500" text-anchor="middle" dominant-baseline="middle">T</text>
  <line x1="327.0" y1="191.6" x2="336.0" y2="207.2" stroke="#D9D9D9" stroke-width="2" stroke-linecap="round" />
  <line x1="385.5" y1="164.3" x2="391.6" y2="181.2" stroke="#D9D9D9" stroke-width="2" stroke-linecap="round" />
  <line x1="447.8" y1="147.6" x2="450.9" y2="165.3" stroke="#D9D9D9" stroke-width="2" stroke-linecap="round" />
  <circle cx="512" cy="512" r="272" fill="none" stroke="#D9D9D9" stroke-width="2" />
  <circle cx="512" cy="512" r="236" fill="none" stroke="#D9D9D9" stroke-width="2" />
  <circle cx="512" cy="512" r="220" fill="#111111" />
  <line x1="512.0" y1="420.0" x2="731.7" y2="500.0" stroke="#D9D9D9" stroke-width="3" stroke-linecap="round" />
  <line x1="571.1" y1="441.5" x2="688.0" y2="644.0" stroke="#D9D9D9" stroke-width="3" stroke-linecap="round" />
  <line x1="602.6" y1="496.0" x2="562.0" y2="726.2" stroke="#D9D9D9" stroke-width="3" stroke-linecap="round" />
  <line x1="591.7" y1="558.0" x2="412.6" y2="708.3" stroke="#D9D9D9" stroke-width="3" stroke-linecap="round" />
  <line x1="543.5" y1="598.5" x2="309.7" y2="598.5" stroke="#D9D9D9" stroke-width="3" stroke-linecap="round" />
  <line x1="480.5" y1="598.5" x2="301.5" y2="448.2" stroke="#D9D9D9" stroke-width="3" stroke-linecap="round" />
  <line x1="432.3" y1="558.0" x2="391.7" y2="327.8" stroke="#D9D9D9" stroke-width="3" stroke-linecap="round" />
  <line x1="421.4" y1="496.0" x2="538.3" y2="293.6" stroke="#D9D9D9" stroke-width="3" stroke-linecap="round" />
  <line x1="452.9" y1="441.5" x2="672.5" y2="361.6" stroke="#D9D9D9" stroke-width="3" stroke-linecap="round" />
  <!-- <line x1="512.0" y1="292.0" x2="578.2" y2="460.3" stroke="#D9D9D9" stroke-width="3" />
  <line x1="653.4" y1="343.5" x2="595.9" y2="514.9" stroke="#D9D9D9" stroke-width="3" />
  <line x1="728.7" y1="473.8" x2="574.4" y2="568.2" stroke="#D9D9D9" stroke-width="3" />
  <line x1="702.5" y1="622.0" x2="523.7" y2="595.2" stroke="#D9D9D9" stroke-width="3" />
  <line x1="587.2" y1="718.7" x2="467.5" y2="583.2" stroke="#D9D9D9" stroke-width="3" />
  <line x1="436.8" y1="718.7" x2="432.1" y2="538.0" stroke="#D9D9D9" stroke-width="3" />
  <line x1="321.5" y1="622.0" x2="434.1" y2="480.5" stroke="#D9D9D9" stroke-width="3" />
  <line x1="295.3" y1="473.8" x2="472.6" y2="437.8" stroke="#D9D9D9" stroke-width="3" />
  <line x1="370.6" y1="343.5" x2="529.5" y2="429.8" stroke="#D9D9D9" stroke-width="3" />
  <circle cx="512" cy="512" r="84" fill="none" stroke="#D9D9D9" stroke-width="3" /> -->
  <polygon points="498,58 526,58 512,86" fill="#111111" />
</svg>